<svg width="45" height="35" viewBox="0 0 45 35" fill="none" xmlns="http://www.w3.org/2000/svg">
<path d="M11.853 20.431H2.633C2.04748 20.4286 1.48686 20.1938 1.07434 19.7783C0.661815 19.3628 0.431138 18.8005 0.432998 18.215V2.58797C0.430872 2.00228 0.661432 1.43972 1.07398 1.02398C1.48654 0.608238 2.04731 0.373354 2.633 0.370972H29.104C29.6888 0.374674 30.2483 0.61014 30.6598 1.02574C31.0713 1.44133 31.3011 2.00314 31.299 2.58797V12.423H29.941V2.58797C29.9437 2.36314 29.857 2.14643 29.7001 1.98539C29.5432 1.82435 29.3288 1.73213 29.104 1.72897H2.633C2.40808 1.73213 2.19359 1.82432 2.03652 1.98533C1.87944 2.14634 1.79259 2.36305 1.795 2.58797V18.215C1.79313 18.4395 1.88025 18.6555 2.03729 18.816C2.19434 18.9764 2.40852 19.0681 2.633 19.071H11.853V20.431Z" fill="white"/>
<path d="M8.21699 10.799H3.41199V12.157H8.21699V10.799Z" fill="white"/>
<path d="M11.853 15.084H3.41199V16.442H11.853V15.084Z" fill="white"/>
<path d="M14.847 10.799H10.041V12.157H14.847V10.799Z" fill="white"/>
<path d="M21.4759 10.799H16.6699V12.157H21.4759V10.799Z" fill="white"/>
<path d="M28.103 10.799H23.298V12.157H28.103V10.799Z" fill="white"/>
<path d="M30.5159 7.53699H1.29895V8.89499H30.5159V7.53699Z" fill="white"/>
<path d="M30.5159 4.23895H1.29895V5.59695H30.5159V4.23895Z" fill="white"/>
<path d="M42.373 34.629H15.897C15.3123 34.6255 14.7528 34.3903 14.3413 33.9748C13.9298 33.5594 13.6999 32.9977 13.702 32.413V16.786C13.6999 16.2011 13.9298 15.6393 14.3413 15.2237C14.7527 14.8081 15.3122 14.5727 15.897 14.569H42.373C42.9587 14.5714 43.5195 14.8062 43.9321 15.222C44.3446 15.6377 44.5752 16.2003 44.573 16.786V32.413C44.5741 32.7029 44.518 32.9903 44.408 33.2585C44.298 33.5268 44.1363 33.7708 43.932 33.9766C43.7277 34.1824 43.4849 34.3459 43.2174 34.4578C42.9499 34.5698 42.663 34.6279 42.373 34.629ZM15.897 15.929C15.6722 15.9321 15.4578 16.0244 15.3009 16.1854C15.144 16.3464 15.0574 16.5631 15.06 16.788V32.413C15.0576 32.6376 15.1444 32.8541 15.3013 33.0149C15.4582 33.1757 15.6724 33.2678 15.897 33.271H42.373C42.5977 33.2678 42.8119 33.1757 42.9688 33.0149C43.1257 32.8541 43.2124 32.6376 43.21 32.413V16.786C43.2127 16.5611 43.1261 16.3444 42.9692 16.1834C42.8123 16.0224 42.5979 15.9301 42.373 15.927L15.897 15.929Z" fill="white"/>
</svg>
