<svg width="19" height="19" viewBox="0 0 19 19" fill="none" xmlns="http://www.w3.org/2000/svg">
<path d="M2.64905 15.9801L3.44305 13.0111L3.78405 12.6641L4.16305 13.0371L3.92005 13.2841L3.40305 15.2181L5.29205 14.6931L5.53405 14.4471L5.91305 14.8191L5.57105 15.1671L2.64905 15.9801Z" fill="#00A7FF"/>
<path d="M11.5831 9.05197L11.2041 8.67897L9.82409 7.25997L9.44409 6.88697L13.8311 2.41797L15.9631 4.58997L11.5831 9.05197Z" fill="#00A7FF"/>
<path d="M5.6581 15.088L3.5271 12.916L10.6761 5.63196L12.8151 7.80096L5.6581 15.088Z" fill="#00A7FF"/>
<path d="M16.5361 3.912L16.1571 3.54L16.7961 2.889L15.5031 1.569L14.8711 2.213L14.4921 1.841L15.1641 1.156C15.2065 1.11299 15.2571 1.07897 15.3129 1.05595C15.3688 1.03293 15.4287 1.02138 15.4891 1.022C15.5617 1.02315 15.6334 1.03868 15.7 1.06768C15.7666 1.09669 15.8268 1.1386 15.8771 1.191L17.1771 2.516C17.2756 2.60618 17.3344 2.73174 17.3406 2.86518C17.3468 2.99863 17.2999 3.12909 17.2101 3.228L16.5361 3.912Z" fill="#00A7FF" stroke="#00A7FF" stroke-width="0.5"/>
<path d="M17.6811 18.237H0.404053V0.64502H12.8321V1.17702H0.936053V17.705H17.1491V5.58002H17.6811V18.237Z" fill="#00A7FF" stroke="#00A7FF" stroke-width="0.5"/>
</svg>
