<svg width="50" height="50" viewBox="0 0 50 50" fill="none" xmlns="http://www.w3.org/2000/svg">
<path d="M24.9999 0.679932C20.1511 0.680129 15.4113 2.11814 11.3798 4.81211C7.34828 7.50608 4.20616 11.335 2.35076 15.8148C0.495352 20.2945 0.00999609 25.2238 0.956064 29.9794C1.90213 34.735 4.23713 39.1032 7.6658 42.5317C11.0945 45.9602 15.4628 48.2951 20.2184 49.2409C24.974 50.1868 29.9033 49.7013 34.383 47.8457C38.8626 45.9901 42.6914 42.8478 45.3853 38.8162C48.0791 34.7846 49.5169 30.0447 49.5169 25.1959C49.5169 21.9764 48.8827 18.7883 47.6506 15.8138C46.4185 12.8393 44.6126 10.1367 42.336 7.86015C40.0593 5.58361 37.3566 3.7778 34.382 2.54581C31.4075 1.31383 28.2194 0.6798 24.9999 0.679932M24.9999 48.2129C20.4475 48.2129 15.9974 46.863 12.2123 44.3339C8.42719 41.8047 5.47704 38.21 3.73494 34.0042C1.99284 29.7984 1.53702 25.1704 2.42514 20.7055C3.31326 16.2407 5.50541 12.1394 8.7244 8.92045C11.9434 5.70147 16.0446 3.50931 20.5095 2.6212C24.9743 1.73308 29.6023 2.18889 33.8081 3.931C38.0139 5.6731 41.6087 8.62325 44.1378 12.4084C46.667 16.1935 48.0169 20.6436 48.0169 25.1959C48.0169 28.2186 47.4215 31.2116 46.2648 34.0042C45.1081 36.7967 43.4127 39.3341 41.2754 41.4714C39.138 43.6087 36.6007 45.3042 33.8081 46.4609C31.0156 47.6176 28.0225 48.2129 24.9999 48.2129Z" fill="#020202"/>
<path d="M25.8811 35.835H24.1191L23.5601 23.292H26.4371L25.8811 35.835Z" fill="black"/>
<path d="M23.5601 23.291V8.052H26.4371V23.291" fill="black"/>
<path d="M26.8591 40.481C26.8591 40.8485 26.7501 41.2078 26.5459 41.5133C26.3418 41.8188 26.0516 42.057 25.7121 42.1976C25.3726 42.3382 24.999 42.375 24.6386 42.3033C24.2782 42.2317 23.9471 42.0547 23.6873 41.7949C23.4274 41.535 23.2505 41.2039 23.1788 40.8435C23.1071 40.4831 23.1439 40.1095 23.2845 39.77C23.4251 39.4305 23.6633 39.1403 23.9688 38.9362C24.2744 38.732 24.6336 38.623 25.0011 38.623C25.4938 38.623 25.9664 38.8188 26.3149 39.1672C26.6633 39.5157 26.8591 39.9883 26.8591 40.481Z" fill="black"/>
</svg>
