<svg width="26" height="31" viewBox="0 0 26 31" fill="none" xmlns="http://www.w3.org/2000/svg">
<path d="M25.8761 30.3589H24.9541V26.2289C24.8852 25.4136 24.4982 24.6582 23.8767 24.126C23.2553 23.5938 22.4492 23.3276 21.6331 23.3849H16.51V22.4628H21.6331C22.6939 22.4047 23.7347 22.7678 24.5293 23.4731C25.3238 24.1783 25.8078 25.1687 25.8761 26.2289V30.3589Z" fill="#F9500A"/>
<path d="M1.71008 30.359H0.788086V26.229C0.856337 25.1686 1.34048 24.178 2.13525 23.4728C2.93002 22.7675 3.97102 22.4045 5.03198 22.4629H10.1541V23.385H5.03198C4.21569 23.3277 3.4097 23.5938 2.78809 24.126C2.16647 24.6581 1.77926 25.4136 1.71008 26.229V30.359Z" fill="#F9500A"/>
<path d="M13.332 25.2999L9.69299 23.226V20.5049H10.615V22.6909L13.332 24.2399L16.0491 22.6909V20.7349H16.9711V23.2269L13.332 25.2999Z" fill="#F9500A"/>
<path d="M13.4771 21.844C11.6984 21.8372 9.97502 21.2253 8.59045 20.1088C7.20588 18.9923 6.24257 17.4378 5.85901 15.701C5.792 15.3912 5.74399 15.0777 5.71509 14.762L6.63306 14.678C6.65842 14.9566 6.70079 15.2335 6.76001 15.507C7.09818 17.0384 7.94763 18.409 9.16846 19.3934C10.3893 20.3777 11.9088 20.9172 13.4771 20.923C15.0975 20.9267 16.6668 20.3562 17.9065 19.3127C19.1462 18.2693 19.9762 16.8203 20.249 15.223L21.157 15.379C20.8475 17.1905 19.9064 18.8338 18.5005 20.0173C17.0946 21.2008 15.3148 21.848 13.4771 21.844Z" fill="#F9500A"/>
<path d="M22.4589 12.0549L21.5389 11.9879L22.0069 5.5199C22.008 4.96248 21.7922 4.42648 21.4051 4.02539C21.018 3.6243 20.49 3.38961 19.9329 3.37091L19.4869 3.35687V2.43286C19.4882 2.22952 19.4089 2.03395 19.2662 1.88904C19.1235 1.74413 18.9293 1.66176 18.7259 1.65991H8.0339C7.83056 1.66176 7.63628 1.74413 7.49362 1.88904C7.35096 2.03395 7.27158 2.22952 7.27291 2.43286V3.35687L6.82699 3.37091C6.26989 3.38961 5.74191 3.6243 5.35482 4.02539C4.96773 4.42648 4.7518 4.96248 4.75289 5.5199L5.21493 11.9069L4.29598 11.9729L3.832 5.53589C3.82658 4.81349 4.0764 4.11239 4.53744 3.55621C4.99848 3.00004 5.64102 2.62454 6.35189 2.49591V2.43286C6.35071 2.21071 6.39331 1.99053 6.47726 1.78485C6.56121 1.57917 6.68498 1.39207 6.84127 1.23419C6.99757 1.07632 7.18332 0.950759 7.38815 0.864746C7.59297 0.778733 7.81285 0.733958 8.035 0.73291H18.728C18.9501 0.733958 19.1699 0.778733 19.3747 0.864746C19.5795 0.950759 19.7654 1.07632 19.9217 1.23419C20.078 1.39207 20.2017 1.57917 20.2856 1.78485C20.3696 1.99053 20.4122 2.21071 20.411 2.43286V2.49689C21.1217 2.62549 21.7642 3.00086 22.2252 3.55682C22.6862 4.11279 22.9362 4.81366 22.931 5.53589V5.56891L22.4589 12.0549Z" fill="#F9500A"/>
<path d="M6.58398 15.4439L5.66504 15.3708C5.68804 15.0848 6.23092 8.34089 6.99792 6.04089L7.12402 5.66187L13.38 6.8009L19.636 5.66187L19.7629 6.04089C20.5289 8.34089 21.0729 15.0848 21.0959 15.3708L20.177 15.4439C19.9605 12.513 19.5681 9.59771 19.002 6.71387L13.381 7.73688L7.76001 6.71387C7.1937 9.59772 6.80097 12.513 6.58398 15.4439Z" fill="#F9500A"/>
<path d="M6.20704 16.691C5.41904 16.549 3.91509 15.818 4.00709 14.768L4.21607 12.436C4.31007 11.388 5.91607 10.93 6.71607 10.927V11.849C6.02207 11.849 5.15008 12.262 5.12708 12.518L4.91798 14.85C4.89498 15.106 5.67799 15.661 6.35999 15.783L6.20704 16.691Z" fill="#F9500A"/>
<path d="M20.453 16.691L20.29 15.784C20.972 15.661 21.7551 15.107 21.7321 14.851L21.5221 12.519C21.4991 12.262 20.6281 11.852 19.9341 11.85V10.928C20.7341 10.928 22.3441 11.389 22.4341 12.437L22.644 14.769C22.745 15.817 21.241 16.549 20.453 16.691Z" fill="#F9500A"/>
</svg>
