<svg width="41" height="38" viewBox="0 0 41 38" fill="none" xmlns="http://www.w3.org/2000/svg">
<path d="M28.19 8.51703H26.984V19.12H28.19V8.51703Z" fill="white"/>
<path d="M0.900024 0.611023V37.631H16.865V36.424H2.10602V1.81602H20.318V0.611023H0.900024Z" fill="white"/>
<path d="M22.7501 3.29102L25.5251 6.07902H22.7501V3.29102ZM21.5441 0.369019V7.28602H28.4281L21.5441 0.369019Z" fill="white"/>
<path d="M22.648 9.5H10.123V10.706H22.648V9.5Z" fill="white"/>
<path d="M22.648 12.306H10.123V13.512H22.648V12.306Z" fill="white"/>
<path d="M6.39699 13.251L4.66199 12.127L5.31799 11.114L6.13299 11.643L7.73299 9.63104L8.67799 10.381L6.39699 13.251Z" fill="white"/>
<path d="M22.648 17.869H10.123V19.075H22.648V17.869Z" fill="white"/>
<path d="M16.865 20.674H10.123V21.88H16.865V20.674Z" fill="white"/>
<path d="M6.39699 21.62L4.66199 20.496L5.31799 19.484L6.13399 20.012L7.73399 18L8.67799 18.75L6.39699 21.62Z" fill="white"/>
<path d="M16.865 26.238H10.123V27.444H16.865V26.238Z" fill="white"/>
<path d="M16.865 29.043H10.123V30.249H16.865V29.043Z" fill="white"/>
<path d="M6.39708 29.989L4.65808 28.865L5.31408 27.853L6.13008 28.381L7.73008 26.369L8.67408 27.119L6.39708 29.989Z" fill="white"/>
<path d="M40.101 25.659H18.569V20.659H40.101V25.659ZM19.775 24.453H38.895V21.862H19.775V24.453Z" fill="white"/>
<path d="M39.476 37.63H19.192V24.452H39.476V37.63ZM20.398 36.424H38.27V25.658H20.398V36.424Z" fill="white"/>
<path d="M31.761 25.659H26.907V20.659H31.761V25.659ZM28.112 24.453H30.561V21.862H28.113L28.112 24.453Z" fill="white"/>
<path d="M31.6599 37.63H27.0079V24.452H31.6599V37.63ZM28.2139 36.424H30.4539V25.658H28.2139V36.424Z" fill="white"/>
</svg>
