<svg width="19" height="9" viewBox="0 0 19 9" fill="none" xmlns="http://www.w3.org/2000/svg">
<path d="M3.146 0L0 3.171L0.875 4.039L3.146 1.751L5.416 4.039L6.291 3.171L3.146 0Z" fill="#9B9B9B"/>
<path d="M8.23902 8.49413H5.80602C4.91514 8.49016 4.06223 8.13286 3.43453 7.50066C2.80683 6.86846 2.45563 6.01302 2.45802 5.12213V1.73413H3.69102V5.12213C3.68862 5.68592 3.90995 6.22763 4.30645 6.62844C4.70295 7.02925 5.24224 7.25643 5.80602 7.26013H8.23902V8.49413Z" fill="#9B9B9B"/>
<path d="M15.3101 8.75311L12.1641 5.58211L13.0391 4.71411L15.3091 7.00211L17.5811 4.71811L18.4561 5.58611L15.3101 8.75311Z" fill="#9B9B9B"/>
<path d="M15.998 7.01906H14.766V3.63006C14.7686 3.0661 14.5474 2.52412 14.1509 2.1231C13.7544 1.72207 13.2149 1.49476 12.651 1.49106C11.167 1.49106 9.54098 1.52206 9.52498 1.52206L9.50098 0.289057C9.51798 0.289057 11.156 0.258057 12.651 0.258057C13.5416 0.262555 14.3941 0.620059 15.0215 1.25217C15.649 1.88429 16.0001 2.73942 15.998 3.63006V7.01906Z" fill="#9B9B9B"/>
</svg>
