<svg width="34" height="34" viewBox="0 0 34 34" fill="none" xmlns="http://www.w3.org/2000/svg">
<path d="M12.699 24.6C5.99901 24.5 0.699005 19.1 0.699005 12.4C0.699005 9.20002 1.89901 6.09999 4.19901 3.79999C6.39901 1.49999 9.49901 0.200012 12.699 0.200012C15.899 0.200012 18.999 1.49999 21.199 3.79999C23.499 6.09999 24.699 9.20002 24.699 12.4C24.699 15.6 23.499 18.7 21.199 21C18.999 23.3 15.899 24.6 12.699 24.6V24.1V23.6C15.599 23.6 18.399 22.4 20.499 20.3C22.599 18.2 23.699 15.4 23.699 12.4C23.699 9.40002 22.599 6.6 20.499 4.5C18.499 2.4 15.699 1.20001 12.699 1.20001C9.79901 1.20001 6.99901 2.4 4.89901 4.5C2.79901 6.6 1.69901 9.40002 1.69901 12.4C1.69901 18.5 6.59901 23.5 12.699 23.5V24.6Z" fill="#EDBB43"/>
<path d="M7.76801 12.434H6.76801C6.76801 10.834 7.36801 9.33397 8.46801 8.13397C9.56801 7.03397 11.068 6.33398 12.668 6.33398V7.33398C11.368 7.33398 10.068 7.83398 9.16801 8.83398C8.26801 9.83398 7.76801 11.134 7.76801 12.434Z" fill="#EDBB43"/>
<path d="M33.368 28.906L25.268 20.606L23.368 22.506L21.368 20.506L20.668 21.206L22.668 23.206L20.768 25.106L28.868 33.306H28.968C29.368 33.506 29.868 33.606 30.268 33.606C31.368 33.606 32.468 33.006 33.068 32.106C33.668 31.206 33.768 30.006 33.368 28.906ZM32.168 31.606C31.568 32.506 30.468 32.906 29.368 32.506L22.168 25.206L25.168 22.106L32.368 29.406C32.768 30.106 32.668 31.006 32.168 31.606Z" fill="#EDBB43"/>
</svg>
