<svg width="22" height="25" viewBox="0 0 22 25" fill="none" xmlns="http://www.w3.org/2000/svg">
<path d="M20.45 13.235C20.2852 13.9306 19.8906 14.5502 19.3299 14.9936C18.7692 15.437 18.0753 15.6782 17.3605 15.6782C16.6457 15.6782 15.9518 15.437 15.3911 14.9936C14.8304 14.5502 14.4358 13.9306 14.271 13.235H1.73299C1.63452 13.2387 1.53633 13.2224 1.44428 13.1872C1.35224 13.1521 1.26823 13.0987 1.19728 13.0303C1.12632 12.9619 1.06989 12.88 1.03134 12.7893C0.99279 12.6986 0.972923 12.6011 0.972923 12.5025C0.972923 12.404 0.99279 12.3065 1.03134 12.2158C1.06989 12.1251 1.12632 12.0431 1.19728 11.9747C1.26823 11.9063 1.35224 11.853 1.44428 11.8178C1.53633 11.7826 1.63452 11.7664 1.73299 11.77H14.271C14.4358 11.0745 14.8304 10.4548 15.3911 10.0115C15.9518 9.56808 16.6457 9.32688 17.3605 9.32688C18.0753 9.32688 18.7692 9.56808 19.3299 10.0115C19.8906 10.4548 20.2852 11.0745 20.45 11.77H21.268C21.4576 11.777 21.6371 11.8573 21.7687 11.9939C21.9004 12.1305 21.9739 12.3128 21.9739 12.5025C21.9739 12.6922 21.9004 12.8746 21.7687 13.0112C21.6371 13.1478 21.4576 13.228 21.268 13.235H20.45ZM17.36 10.791C17.022 10.791 16.6916 10.8912 16.4105 11.079C16.1295 11.2668 15.9104 11.5337 15.7811 11.846C15.6517 12.1583 15.6179 12.5019 15.6838 12.8334C15.7498 13.1649 15.9125 13.4695 16.1515 13.7085C16.3906 13.9475 16.6951 14.1102 17.0266 14.1762C17.3581 14.2421 17.7017 14.2083 18.014 14.0789C18.3263 13.9496 18.5932 13.7305 18.781 13.4495C18.9688 13.1684 19.069 12.838 19.069 12.5C19.0685 12.0469 18.8882 11.6125 18.5679 11.2922C18.2475 10.9718 17.8131 10.7915 17.36 10.791ZM8.72899 4.44202C8.56422 5.13758 8.16956 5.75719 7.60888 6.20057C7.0482 6.64395 6.3543 6.88516 5.63949 6.88516C4.92468 6.88516 4.23079 6.64395 3.6701 6.20057C3.10942 5.75719 2.71476 5.13758 2.54999 4.44202H1.73199C1.63352 4.44566 1.53533 4.4294 1.44328 4.39423C1.35124 4.35906 1.26723 4.30569 1.19627 4.23731C1.12532 4.16893 1.06889 4.08695 1.03034 3.99627C0.991791 3.90558 0.971924 3.80805 0.971924 3.70952C0.971924 3.61098 0.991791 3.51345 1.03034 3.42277C1.06889 3.33208 1.12532 3.2501 1.19627 3.18172C1.26723 3.11335 1.35124 3.05998 1.44328 3.0248C1.53533 2.98963 1.63352 2.97338 1.73199 2.97702H2.54999C2.71476 2.28146 3.10942 1.66185 3.6701 1.21847C4.23079 0.775084 4.92468 0.533875 5.63949 0.533875C6.3543 0.533875 7.0482 0.775084 7.60888 1.21847C8.16956 1.66185 8.56422 2.28146 8.72899 2.97702H21.267C21.4566 2.98402 21.6361 3.06426 21.7677 3.20087C21.8994 3.33747 21.9729 3.5198 21.9729 3.70952C21.9729 3.89923 21.8994 4.08156 21.7677 4.21817C21.6361 4.35477 21.4566 4.43501 21.267 4.44202H8.72899ZM5.63999 2.00002C5.30198 2.00002 4.97156 2.10025 4.69052 2.28804C4.40948 2.47582 4.19043 2.74273 4.06108 3.05501C3.93173 3.36729 3.89789 3.71091 3.96383 4.04243C4.02977 4.37394 4.19254 4.67846 4.43155 4.91746C4.67056 5.15647 4.97507 5.31924 5.30658 5.38518C5.6381 5.45112 5.98172 5.41728 6.294 5.28793C6.60628 5.15858 6.87319 4.93953 7.06097 4.65849C7.24876 4.37744 7.34899 4.04703 7.34899 3.70902C7.34846 3.25592 7.16824 2.82154 6.84785 2.50116C6.52747 2.18077 6.09308 2.00055 5.63999 2.00002ZM13.125 22.023C12.9602 22.7186 12.5656 23.3382 12.0049 23.7816C11.4442 24.225 10.7503 24.4662 10.0355 24.4662C9.32068 24.4662 8.62679 24.225 8.0661 23.7816C7.50542 23.3382 7.11076 22.7186 6.94599 22.023H1.73299C1.63452 22.0267 1.53633 22.0104 1.44428 21.9752C1.35224 21.9401 1.26823 21.8867 1.19728 21.8183C1.12632 21.7499 1.06989 21.6679 1.03134 21.5773C0.99279 21.4866 0.972923 21.3891 0.972923 21.2905C0.972923 21.192 0.99279 21.0945 1.03134 21.0038C1.06989 20.9131 1.12632 20.8311 1.19728 20.7627C1.26823 20.6943 1.35224 20.641 1.44428 20.6058C1.53633 20.5706 1.63452 20.5544 1.73299 20.558H6.94599C7.11076 19.8625 7.50542 19.2428 8.0661 18.7995C8.62679 18.3561 9.32068 18.1149 10.0355 18.1149C10.7503 18.1149 11.4442 18.3561 12.0049 18.7995C12.5656 19.2428 12.9602 19.8625 13.125 20.558H21.268C21.4576 20.565 21.6371 20.6453 21.7687 20.7819C21.9004 20.9185 21.9739 21.1008 21.9739 21.2905C21.9739 21.4802 21.9004 21.6626 21.7687 21.7992C21.6371 21.9358 21.4576 22.016 21.268 22.023H13.125ZM10.036 19.581C9.69798 19.581 9.36757 19.6812 9.08652 19.869C8.80548 20.0568 8.58643 20.3237 8.45708 20.636C8.32773 20.9483 8.29389 21.2919 8.35983 21.6234C8.42577 21.9549 8.58854 22.2595 8.82755 22.4985C9.06655 22.7375 9.37107 22.9002 9.70258 22.9662C10.0341 23.0321 10.3777 22.9983 10.69 22.8689C11.0023 22.7396 11.2692 22.5205 11.457 22.2395C11.6448 21.9584 11.745 21.628 11.745 21.29C11.7442 20.8369 11.5637 20.4026 11.2431 20.0824C10.9226 19.7623 10.4881 19.5823 10.035 19.582L10.036 19.581Z" fill="#F9500A"/>
</svg>
