<svg width="28" height="23" viewBox="0 0 28 23" fill="none" xmlns="http://www.w3.org/2000/svg">
<path d="M24.5247 20.9249H1.62769V12.3249H2.46669V20.0899H23.6857V12.2419H24.5247V20.9249Z" fill="#F9500A"/>
<path d="M1.62891 0.207031V8.55103H2.46791V1.04603H23.6859V8.47203H24.5249V0.207031H1.62891Z" fill="#F9500A"/>
<path d="M5.48571 4.68193H4.34071V3.31793H5.48571V4.68193ZM6.32471 2.48193H3.50171V5.52393H6.32371L6.32471 2.48193Z" fill="#F9500A"/>
<path d="M9.56674 4.68193H8.42274V3.31793H9.56774L9.56674 4.68193ZM10.4057 2.48193H7.58374V5.52393H10.4057V2.48193Z" fill="#F9500A"/>
<path d="M13.6488 4.68193H12.5038V3.31793H13.6488V4.68193ZM14.4878 2.48193H11.6648V5.52393H14.4868L14.4878 2.48193Z" fill="#F9500A"/>
<path d="M17.7318 4.68193H16.5858V3.31793H17.7318V4.68193ZM18.5708 2.48193H15.7468V5.52393H18.5688L18.5708 2.48193Z" fill="#F9500A"/>
<path d="M21.8119 4.68193H20.6669V3.31793H21.8119V4.68193ZM22.6509 2.48193H19.8279V5.52393H22.6499L22.6509 2.48193Z" fill="#F9500A"/>
<path d="M9.19887 14.818V18.007H4.38587V14.818H9.19887ZM10.0379 13.979H3.54688V18.844H10.0379V13.979Z" fill="#F9500A"/>
<path d="M21.8119 14.818V18.007H16.9989V14.818H21.8119ZM22.6509 13.979H16.1599V18.844H22.6509V13.979Z" fill="#F9500A"/>
<path d="M15.1239 20.512H14.2849V14.872H11.8649V20.512H11.0239V14.03H15.1239V20.512Z" fill="#F9500A"/>
<path d="M25.4048 21.9551H0.746826V22.7941H25.4048V21.9551Z" fill="#F9500A"/>
<path d="M25.1697 0.207031H0.981689V1.04603H25.1697V0.207031Z" fill="#F9500A"/>
<path d="M26.0578 3.46509H24.5088V4.30409H26.0578V3.46509Z" fill="#F9500A"/>
<path d="M26.0578 6.17993H24.5088V7.01893H26.0578V6.17993Z" fill="#F9500A"/>
<path d="M26.0587 4.85913H25.2197V5.64513H26.0587V4.85913Z" fill="#F9500A"/>
<path d="M25.1699 1.79907V2.63807H27.0059V7.60707H25.1699V8.44607H27.8449V1.79907H25.1699Z" fill="#F9500A"/>
<path d="M3.53781 6.63794L0.601807 9.46494L1.18381 10.0649L3.87681 7.47294H22.1848L24.8778 10.0729L25.4598 9.47294L22.5238 6.64594L3.53781 6.63794Z" fill="#F9500A"/>
<path d="M24.5057 10.318V10.551C24.508 10.9094 24.3846 11.2573 24.1569 11.5341C23.9292 11.8109 23.6116 11.9991 23.2595 12.066C22.9073 12.1328 22.5429 12.074 22.2296 11.8999C21.9163 11.7258 21.6739 11.4474 21.5447 11.113C21.4335 11.4013 21.2376 11.6492 20.9828 11.824C20.728 11.9988 20.4263 12.0924 20.1172 12.0924C19.8082 12.0924 19.5065 11.9988 19.2517 11.824C18.9968 11.6492 18.8009 11.4013 18.6897 11.113C18.5781 11.4009 18.3821 11.6483 18.1273 11.8228C17.8726 11.9973 17.571 12.0906 17.2622 12.0906C16.9535 12.0906 16.6519 11.9973 16.3972 11.8228C16.1424 11.6483 15.9463 11.4009 15.8347 11.113C15.7235 11.4013 15.5276 11.6492 15.2728 11.824C15.018 11.9988 14.7163 12.0924 14.4072 12.0924C14.0982 12.0924 13.7965 11.9988 13.5417 11.824C13.2868 11.6492 13.0909 11.4013 12.9797 11.113C12.8685 11.4013 12.6726 11.6492 12.4178 11.824C12.163 11.9988 11.8613 12.0924 11.5522 12.0924C11.2432 12.0924 10.9415 11.9988 10.6867 11.824C10.4318 11.6492 10.2359 11.4013 10.1247 11.113C10.0131 11.4009 9.8171 11.6483 9.56234 11.8228C9.30758 11.9973 9.00602 12.0906 8.69725 12.0906C8.38847 12.0906 8.08691 11.9973 7.83215 11.8228C7.5774 11.6483 7.38135 11.4009 7.26975 11.113C7.15837 11.401 6.96246 11.6485 6.70777 11.8231C6.45308 11.9977 6.15152 12.0911 5.84275 12.0911C5.53397 12.0911 5.23242 11.9977 4.97772 11.8231C4.72303 11.6485 4.52712 11.401 4.41575 11.113C4.28607 11.4469 4.04356 11.7249 3.73032 11.8986C3.41708 12.0724 3.05288 12.1309 2.70096 12.0642C2.34904 11.9974 2.03161 11.8095 1.80378 11.5331C1.57595 11.2567 1.45211 10.9092 1.45375 10.551V10.318H24.5057ZM25.3447 9.479H0.614746V10.551C0.614746 10.9921 0.737568 11.4244 0.96945 11.7996C1.20133 12.1748 1.53311 12.478 1.92761 12.6753C2.32212 12.8725 2.76375 12.956 3.20303 12.9164C3.64232 12.8768 4.06189 12.7156 4.41475 12.451C4.82656 12.7599 5.32746 12.9269 5.84225 12.9269C6.35703 12.9269 6.85793 12.7599 7.26975 12.451C7.68147 12.7597 8.18217 12.9265 8.69675 12.9265C9.21132 12.9265 9.71202 12.7597 10.1237 12.451C10.5356 12.7599 11.0365 12.9269 11.5512 12.9269C12.066 12.9269 12.5669 12.7599 12.9787 12.451C13.3905 12.7601 13.8914 12.9271 14.4062 12.9271C14.9211 12.9271 15.422 12.7601 15.8337 12.451C16.2456 12.7599 16.7465 12.9269 17.2612 12.9269C17.776 12.9269 18.2769 12.7599 18.6887 12.451C19.1006 12.7599 19.6015 12.9269 20.1162 12.9269C20.631 12.9269 21.1319 12.7599 21.5437 12.451C21.8965 12.716 22.3161 12.8775 22.7556 12.9173C23.195 12.9571 23.6368 12.8737 24.0314 12.6764C24.4261 12.4791 24.7579 12.1757 24.9897 11.8002C25.2215 11.4248 25.3441 10.9922 25.3437 10.551V9.479H25.3447Z" fill="#F9500A"/>
</svg>
