<svg width="25" height="25" viewBox="0 0 25 25" fill="none" xmlns="http://www.w3.org/2000/svg">
<path d="M12.699 24.6C5.99901 24.5 0.699005 19.1 0.699005 12.4C0.699005 9.20002 1.89901 6.09999 4.19901 3.79999C6.39901 1.49999 9.49901 0.200012 12.699 0.200012C15.899 0.200012 18.999 1.49999 21.199 3.79999C23.499 6.09999 24.699 9.20002 24.699 12.4C24.699 15.6 23.499 18.7 21.199 21C18.999 23.3 15.899 24.6 12.699 24.6V24.1V23.6C15.599 23.6 18.399 22.4 20.499 20.3C22.599 18.2 23.699 15.4 23.699 12.4C23.699 9.40002 22.599 6.6 20.499 4.5C18.499 2.4 15.699 1.20001 12.699 1.20001C9.79901 1.20001 6.99901 2.4 4.89901 4.5C2.79901 6.6 1.69901 9.40002 1.69901 12.4C1.69901 18.5 6.59901 23.5 12.699 23.5V24.6Z" fill="#EDBB43"/>
</svg>
